<?xml version="1.0" standalone="no"?>
<!DOCTYPE svg PUBLIC "-//W3C//DTD SVG 20010904//EN"
 "http://www.w3.org/TR/2001/REC-SVG-20010904/DTD/svg10.dtd">
<svg version="1.0" xmlns="http://www.w3.org/2000/svg"
 width="406.000000pt" height="406.000000pt" viewBox="0 0 406.000000 406.000000"
 preserveAspectRatio="xMidYMid meet">
<metadata>
Created by potrace 1.11, written by Peter Selinger 2001-2013
</metadata>
<g transform="translate(0.000000,406.000000) scale(0.100000,-0.100000)"
fill="#000000" stroke="none">
<path d="M2163 3864 c4 -20 20 -63 36 -95 17 -33 28 -59 26 -59 -13 0 -136 62
-170 85 -72 50 -125 67 -222 73 -82 4 -93 3 -99 -13 -8 -21 8 -33 59 -41 36
-6 104 -51 93 -61 -3 -3 -40 3 -84 12 -85 19 -64 21 -293 -29 -32 -7 -66 -9
-77 -5 -35 13 -16 -13 31 -43 35 -23 38 -28 19 -28 -61 0 -139 -78 -167 -165
-15 -50 -15 -57 -1 -86 9 -18 16 -33 16 -34 0 -1 -20 -5 -45 -8 -26 -2 -49 -8
-53 -11 -3 -4 11 -22 32 -39 43 -37 42 -39 -32 -76 -26 -13 -47 -32 -53 -49
-11 -27 -10 -31 14 -97 15 -39 15 -39 -15 -58 -31 -18 -31 -19 -23 -80 5 -34
9 -94 9 -134 0 -39 4 -67 7 -61 4 5 9 6 12 2 8 -14 22 -194 19 -236 -2 -21 1
-38 6 -38 5 0 12 -26 15 -57 3 -32 12 -98 20 -148 9 -49 18 -126 22 -171 6
-74 5 -82 -12 -86 -10 -3 -26 -9 -35 -13 -14 -5 -17 2 -22 47 -9 87 -12 387
-4 382 11 -7 10 38 -2 56 -8 12 -10 8 -11 -15 -4 -64 2 -402 8 -443 6 -46 11
-48 68 -26 15 6 16 -12 9 -237 -3 -134 -10 -251 -15 -260 -5 -10 9 -48 42
-114 27 -55 49 -103 49 -108 0 -14 73 -158 145 -287 21 -36 83 -121 98 -131
10 -7 45 -68 53 -91 4 -10 10 -18 15 -18 5 0 9 -9 9 -20 0 -13 15 -27 48 -44
43 -22 62 -25 193 -27 l145 -3 59 65 c33 35 72 78 87 94 15 17 28 35 28 40 0
6 23 35 51 65 40 44 122 142 172 205 21 26 102 157 135 215 19 36 44 76 54 89
10 13 18 29 18 35 0 6 -5 4 -10 -4 -14 -22 -13 2 5 124 44 295 53 334 70 306
11 -17 39 -11 68 15 32 30 45 55 93 172 59 145 74 186 74 213 0 14 6 50 14 80
14 53 14 54 -13 81 -27 27 -27 28 -11 61 9 18 24 61 33 94 22 79 23 326 2 449
-15 85 -13 125 5 125 18 0 21 66 6 124 -14 53 -29 80 -61 111 -6 6 -26 30 -45
55 -19 25 -37 47 -40 50 -3 3 -18 20 -34 37 l-28 32 26 47 c14 26 24 49 22 51
-2 2 -39 -1 -82 -7 -63 -8 -92 -19 -143 -50 l-64 -39 -15 27 c-15 27 -24 104
-11 96 4 -2 12 3 19 11 35 42 -65 -19 -120 -73 l-25 -24 -7 36 c-12 58 -44
111 -87 145 -21 17 -43 31 -48 31 -4 0 -26 9 -47 21 l-39 21 6 -38z m-226
-796 c88 -7 140 -15 136 -21 -4 -6 0 -8 9 -5 25 10 65 -36 73 -83 6 -36 3 -47
-22 -83 -17 -25 -42 -45 -61 -52 l-33 -10 26 -12 c63 -29 156 -6 203 49 35 42
44 75 31 122 -6 22 -9 40 -7 41 8 7 201 -15 251 -28 71 -18 84 -26 128 -73 54
-56 86 -114 98 -174 20 -99 33 -174 33 -184 -1 -19 -40 -220 -55 -280 -8 -33
-22 -107 -31 -165 -9 -58 -24 -118 -33 -134 -9 -16 -11 -26 -4 -22 15 9 14 3
-9 -128 -28 -163 -50 -311 -50 -342 0 -15 -20 -62 -45 -105 -25 -43 -45 -81
-45 -84 0 -3 -7 -13 -15 -22 -9 -10 -42 -58 -75 -108 -32 -49 -95 -130 -140
-180 -45 -49 -85 -97 -88 -107 -4 -9 -42 -54 -84 -101 l-78 -85 -145 -1 c-180
-2 -200 6 -259 107 -22 37 -58 90 -81 117 -24 28 -53 70 -66 94 -13 23 -36 64
-51 90 -35 62 -98 187 -98 197 0 4 -19 46 -42 93 l-41 86 2 170 c1 93 4 172 6
175 2 3 6 168 9 365 9 535 12 581 44 635 14 25 37 61 52 81 28 39 118 142 106
122 -9 -17 -3 -16 42 4 37 16 194 50 242 52 14 1 89 -4 167 -11z m1008 -617
c15 -31 14 -48 -16 -180 -9 -40 -63 -175 -111 -279 -26 -55 -70 -87 -98 -72
-19 10 -29 60 -12 60 17 0 67 78 99 154 18 44 50 137 69 205 45 160 44 159 69
112z"/>
<path d="M1730 2824 c19 -9 69 -25 111 -35 42 -10 93 -26 112 -34 55 -23 192
-16 327 15 48 12 -56 2 -123 -11 -104 -20 -146 -14 -347 51 -91 30 -125 36
-80 14z"/>
<path d="M1595 2750 c-19 -5 -5 -6 36 -3 79 6 150 -8 227 -44 53 -25 66 -27
182 -27 69 0 189 4 267 9 106 6 146 5 157 -4 9 -8 16 -8 20 -2 11 18 -64 24
-193 15 -69 -4 -180 -8 -246 -8 -106 0 -126 2 -170 23 -98 47 -201 62 -280 41z"/>
<path d="M1565 2634 c-37 -13 -38 -14 -5 -7 72 15 172 8 225 -17 71 -34 72
-34 55 -16 -25 26 -125 56 -182 55 -29 -1 -71 -7 -93 -15z"/>
<path d="M2260 2594 l-55 -13 50 7 c28 4 88 7 135 6 51 0 75 2 60 7 -39 11
-129 8 -190 -7z"/>
<path d="M1550 2529 c-46 -18 -90 -70 -90 -105 0 -47 16 -50 65 -15 26 19 62
34 89 37 41 6 50 3 105 -35 34 -22 63 -41 66 -41 3 0 17 -12 31 -27 43 -46 68
-168 44 -214 -7 -12 -7 -19 -1 -19 28 0 25 134 -4 190 -8 16 -15 41 -15 55 0
26 -54 115 -69 115 -5 0 -32 16 -60 35 -53 37 -108 45 -161 24z"/>
<path d="M2345 2481 c-22 -10 -71 -48 -110 -84 -54 -51 -67 -69 -58 -78 15
-15 63 1 103 35 16 13 52 32 80 41 47 16 53 16 76 1 13 -9 29 -14 33 -11 5 3
18 -7 29 -21 22 -31 42 -25 42 13 0 18 -15 41 -51 74 -56 55 -78 59 -144 30z"/>
<path d="M1640 2291 c-40 -10 -104 -48 -116 -68 -6 -10 -10 -31 -10 -48 1 -27
5 -30 46 -38 67 -12 172 -39 194 -50 43 -22 51 66 9 104 -72 65 -121 75 -181
34 -40 -27 -52 -31 -52 -15 0 27 143 90 156 69 7 -12 65 -42 70 -36 5 4 -75
58 -84 56 -4 -1 -18 -4 -32 -8z m76 -79 c53 -39 66 -57 62 -84 -2 -19 -8 -22
-33 -20 -16 2 -44 7 -62 13 -28 9 -31 13 -21 29 14 22 -4 50 -33 50 -20 0 -44
-34 -34 -50 5 -8 -63 -3 -74 6 -16 13 92 84 129 84 15 0 45 -13 66 -28z"/>
<path d="M2129 2257 c-53 -66 -70 -105 -67 -148 2 -24 8 -44 16 -45 7 -1 8 0
2 3 -5 2 -10 23 -10 45 0 44 25 93 74 146 16 17 26 32 20 31 -5 0 -21 -15 -35
-32z"/>
<path d="M2294 2236 c-61 -22 -86 -57 -89 -123 -1 -42 14 -61 37 -47 5 3 53
13 106 23 78 13 97 20 100 34 7 37 -8 68 -42 82 -18 8 -38 21 -46 29 -14 18
-22 18 -66 2z m36 -16 c-39 -11 -90 -39 -90 -51 0 -5 17 2 37 16 21 14 47 25
59 25 35 0 84 -21 94 -40 17 -31 12 -60 -9 -60 -10 0 -33 -3 -50 -6 -27 -6
-31 -4 -31 15 0 45 -59 37 -70 -9 -3 -13 -16 -27 -28 -31 -21 -8 -23 -6 -19
19 3 15 9 36 13 46 5 14 4 17 -5 11 -19 -11 2 26 26 46 22 20 75 38 88 31 5
-3 -2 -9 -15 -12z"/>
<path d="M1527 2096 c10 -14 36 -32 58 -40 41 -16 165 -22 165 -8 0 4 -27 5
-59 4 -65 -4 -146 23 -157 52 -3 9 -10 16 -16 16 -5 0 -1 -11 9 -24z"/>
<path d="M2410 2045 c-14 -8 -46 -19 -71 -25 -38 -9 -53 -9 -83 4 -20 8 -36
11 -36 6 0 -5 19 -14 42 -21 35 -9 52 -8 100 7 32 9 63 23 69 31 14 16 11 16
-21 -2z"/>
<path d="M1752 1887 c-26 -28 -30 -85 -6 -94 9 -3 35 -2 59 4 39 9 44 7 74
-19 34 -31 76 -36 106 -14 17 12 25 12 57 -1 21 -8 48 -13 61 -9 28 7 59 58
51 83 -9 24 -35 53 -47 53 -6 0 -1 -10 10 -22 34 -38 35 -47 13 -78 -24 -34
-47 -37 -92 -14 -29 15 -34 15 -59 0 -39 -23 -59 -20 -95 15 -30 29 -33 30
-74 19 -23 -6 -48 -9 -56 -6 -24 9 -16 58 14 83 15 12 22 22 16 23 -6 0 -20
-10 -32 -23z"/>
<path d="M1729 1714 c-33 -34 -34 -38 -37 -123 -3 -75 -1 -89 15 -102 16 -13
17 -13 4 3 -9 13 -12 42 -10 104 4 84 5 86 41 120 21 19 34 34 30 34 -5 0 -24
-16 -43 -36z"/>
<path d="M2070 1714 c0 -3 11 -15 25 -26 22 -17 25 -28 27 -91 l2 -72 3 60 c5
76 -1 99 -32 119 -14 9 -25 14 -25 10z"/>
<path d="M1850 1694 c0 -11 10 -30 23 -42 43 -41 137 -19 137 31 0 21 -1 21
-13 -3 -27 -53 -104 -52 -130 2 -13 26 -17 28 -17 12z"/>
<path d="M1845 1578 c-16 -12 -39 -32 -53 -45 -13 -12 -30 -19 -38 -16 -8 3
-14 0 -14 -6 0 -21 30 -11 67 23 49 43 75 56 111 56 31 0 64 -29 81 -70 9 -22
10 -23 10 -4 1 11 -13 35 -30 52 -39 40 -92 44 -134 10z"/>
<path d="M1875 1513 c-16 -3 -35 -9 -42 -15 -6 -5 -24 -13 -40 -18 -21 -6 -23
-8 -8 -9 11 -1 29 5 40 13 39 26 99 26 156 0 l52 -24 -23 -25 c-33 -35 -84
-42 -143 -21 -63 22 -72 15 -11 -9 61 -23 117 -15 155 21 16 15 29 30 29 33 0
11 -75 48 -105 53 -16 3 -43 3 -60 1z"/>
<path d="M1545 1466 c3 -11 10 -39 16 -64 5 -24 18 -60 29 -80 26 -51 50 -108
50 -120 0 -17 20 -65 25 -60 8 7 -24 95 -69 188 -14 30 -26 64 -26 75 -1 11
-8 34 -16 50 -8 17 -12 21 -9 11z"/>
<path d="M2297 1342 c-66 -76 -97 -123 -97 -146 1 -6 9 7 20 29 10 22 48 73
84 113 58 64 73 83 64 82 -2 -1 -34 -36 -71 -78z"/>
<path d="M440 3625 c0 -7 90 -89 104 -94 6 -2 53 -31 104 -64 51 -33 95 -57
99 -54 3 4 -3 10 -13 14 -10 4 -56 31 -101 60 -44 29 -86 53 -92 53 -6 0 -20
14 -33 30 -20 28 -68 67 -68 55z"/>
<path d="M3660 3360 c-25 -4 -97 -24 -160 -43 -63 -20 -124 -38 -135 -40 -18
-4 -18 -5 -1 -6 10 0 77 17 148 39 72 22 145 40 164 40 18 0 36 5 39 10 3 6 3
9 -2 9 -4 -1 -28 -5 -53 -9z"/>
<path d="M485 2771 c111 -6 150 -12 188 -29 26 -11 47 -17 47 -12 0 4 -21 16
-47 25 -35 13 -85 18 -188 20 l-140 3 140 -7z"/>
<path d="M3350 2642 c0 -16 24 -27 125 -56 49 -14 111 -37 138 -52 27 -14 51
-23 54 -21 8 9 -109 59 -196 84 -47 14 -94 32 -103 40 -11 10 -18 11 -18 5z"/>
<path d="M680 2141 c-19 -4 -62 -21 -95 -39 -33 -17 -72 -37 -87 -44 -16 -7
-28 -16 -28 -21 0 -5 26 6 58 24 95 54 130 69 162 69 16 0 30 5 30 10 0 6 -1
9 -2 9 -2 -1 -19 -4 -38 -8z"/>
<path d="M3185 1724 c17 -14 50 -36 75 -50 25 -14 64 -37 86 -52 87 -56 135
-84 140 -80 2 3 -17 17 -43 32 -27 15 -68 40 -93 56 -25 16 -65 40 -90 54 -25
13 -55 34 -67 45 -12 12 -26 21 -30 21 -4 -1 6 -12 22 -26z"/>
<path d="M1997 587 c-56 -18 -107 -63 -107 -94 0 -15 7 -34 15 -43 12 -14 13
-36 5 -150 -10 -140 -6 -160 31 -160 10 0 21 -4 24 -10 10 -16 158 -12 198 5
20 8 48 27 62 42 l25 28 0 -27 c0 -41 54 -78 113 -78 41 0 52 5 86 39 l39 39
37 -25 c31 -21 46 -25 85 -21 71 7 99 43 100 124 0 75 -24 104 -86 104 -45 0
-124 -50 -124 -78 -1 -10 -7 -4 -14 13 -7 17 -25 40 -38 53 -22 20 -34 23 -83
20 -53 -3 -60 -6 -74 -32 -21 -37 -25 -37 -52 -2 -12 15 -40 36 -62 45 l-40
17 31 32 c42 43 42 78 0 119 -54 52 -98 62 -171 40z m104 -77 c29 -16 23 -31
-32 -74 -71 -56 -65 -68 64 -120 52 -21 61 -35 47 -72 -14 -35 -69 -56 -138
-52 l-57 3 3 155 c3 103 8 157 15 162 17 11 75 10 98 -2z m319 -273 c-1 -37
-32 -69 -66 -65 -27 3 -29 6 -28 45 0 26 8 51 19 63 18 19 18 19 46 -1 17 -12
29 -29 29 -42z m220 -3 c0 -33 -72 -45 -78 -13 -1 8 7 28 19 43 l22 28 18 -23
c10 -13 19 -29 19 -35z"/>
<path d="M332 548 c-15 -19 -52 -204 -52 -259 0 -27 -4 -51 -10 -54 -15 -9
-12 -61 5 -75 8 -7 21 -10 29 -7 23 9 46 67 46 116 1 25 7 71 14 101 12 55 13
55 19 21 4 -18 7 -54 7 -80 1 -133 94 -132 159 2 30 61 31 61 31 27 1 -19 9
-71 19 -114 19 -88 37 -110 72 -88 18 11 24 11 38 -2 11 -10 36 -16 64 -16 40
0 52 5 87 39 l41 39 14 -28 c20 -38 58 -60 104 -60 31 0 47 7 75 33 l35 33 -5
-26 c-7 -33 19 -59 44 -44 18 12 28 27 42 68 l11 30 18 -30 c10 -16 28 -38 40
-48 19 -17 24 -18 47 -6 34 19 41 33 53 120 11 78 4 100 -28 100 -27 0 -41
-21 -41 -61 0 -21 -4 -41 -10 -44 -5 -3 -10 3 -10 15 0 29 -23 70 -54 100 -40
36 -56 19 -80 -81 -11 -46 -20 -79 -22 -74 -1 6 -7 37 -15 70 -17 80 -31 95
-88 95 -55 0 -84 -18 -111 -68 -16 -32 -19 -34 -20 -14 0 37 -18 60 -61 83
-63 32 -98 23 -134 -33 -16 -26 -33 -48 -36 -48 -11 0 -19 61 -19 150 0 71 -3
90 -18 103 -24 22 -55 22 -73 0 -20 -24 -49 -89 -50 -111 0 -9 -11 -39 -24
-67 l-23 -50 -1 45 c-2 68 -19 121 -58 168 -36 43 -53 51 -71 30z m482 -279
c14 12 16 10 16 -11 0 -38 -28 -70 -58 -66 -31 3 -40 34 -22 67 9 17 14 19 29
9 15 -9 23 -9 35 1z m236 -33 c11 -29 -6 -56 -34 -56 -29 0 -47 36 -34 66 12
27 56 21 68 -10z"/>
<path d="M3450 393 c-19 -2 -42 -7 -50 -10 -8 -3 -25 -5 -38 -4 -47 5 -67 -36
-35 -72 17 -18 16 -21 -5 -57 -40 -70 -25 -108 53 -129 59 -16 120 -14 136 5
23 27 -2 48 -66 56 -67 9 -74 13 -54 32 11 11 29 12 83 5 73 -9 96 -2 96 30 0
29 -22 41 -75 42 -27 0 -59 4 -70 9 -19 7 -18 8 5 14 14 3 61 9 104 14 57 5
82 12 89 24 27 41 -34 56 -173 41z"/>
<path d="M1566 351 c-21 -22 -26 -34 -20 -55 4 -15 0 -42 -10 -66 -40 -100 -9
-149 99 -158 73 -5 115 9 115 39 0 26 -18 33 -87 34 -34 0 -64 3 -68 6 -3 4
-1 18 4 33 10 25 14 26 80 26 50 0 72 4 82 16 25 30 -1 48 -77 55 l-69 5 76 2
c84 2 113 18 92 50 -7 12 -28 18 -74 20 -35 2 -68 7 -73 13 -17 16 -42 10 -70
-20z"/>
<path d="M2777 352 c-15 -15 -27 -35 -27 -43 0 -8 -7 -24 -15 -35 -8 -10 -15
-38 -15 -61 0 -68 47 -103 139 -103 94 0 96 61 3 70 -64 7 -82 22 -63 52 8 12
17 34 21 47 5 20 13 25 39 25 48 1 64 30 32 57 -35 28 -82 25 -114 -9z"/>
<path d="M3700 365 c-7 -8 -18 -15 -26 -15 -21 0 -44 -42 -44 -83 0 -35 4 -40
51 -69 41 -26 47 -33 32 -39 -10 -3 -26 -1 -35 4 -21 14 -48 -7 -48 -38 0 -31
39 -49 87 -41 61 12 83 31 83 74 0 48 -21 77 -65 92 -19 6 -35 13 -35 16 0 16
45 43 76 46 44 4 65 28 45 52 -18 21 -104 22 -121 1z"/>
<path d="M1415 350 c-15 -17 -16 -24 -6 -43 7 -12 15 -60 19 -106 8 -92 24
-118 58 -91 15 13 16 28 11 119 -5 77 -10 108 -23 122 -22 24 -36 24 -59 -1z"/>
<path d="M2982 358 c-5 -7 -12 -29 -15 -48 -3 -19 -11 -68 -17 -108 -10 -57
-10 -75 0 -87 32 -38 87 2 75 56 l-7 32 43 -7 c24 -4 63 -10 86 -13 38 -5 42
-8 45 -36 4 -36 30 -57 55 -41 13 8 18 30 21 105 2 52 4 105 5 118 1 13 -6 28
-15 35 -28 18 -52 -4 -56 -50 -4 -52 -27 -62 -104 -50 l-58 10 0 36 c0 51 -33
78 -58 48z"/>
</g>
</svg>
